# xmcd CD database file
#
# Track frame offsets:
#	150
#	66580
#	152445
#	224017
#
# Disc length: 3528 seconds
#
# Revision: 0
# Processed by: cddbd v1.5.2PL0 Copyright (c) Steve Scherf et al.
# Submitted via: CDex 1.51
#
DISCID=390dc604
DTITLE=Ruf der Heimat - Erste Heimat
DYEAR=1995
DGENRE=Jazz
TTITLE0=Manu, the wild one
TTITLE1=Susi, the comorant
TTITLE2=Uschi, the nice song
TTITLE3=Vroni, the silent one
EXTD=YEAR: 1995
EXTT0=
EXTT1=
EXTT2=
EXTT3=
PLAYORDER=
